<svg width="500" height="500" viewBox="0 0 500 500" xmlns="http://www.w3.org/2000/svg">
  <path d="M247.12,45.66c0,0,20.65,83.38,91.85,144.26c71.2,60.88,87.83,92.27,85.56,125.02
    c-2.26,32.75-36.29,92.28-79.96,120.38c-43.66,28.11-103.72,40.58-162.47,21.62c-58.75-18.97-127.21-92.81-127.21-142.79
    c0-49.98,31.59-117.15,63.19-140.49c31.59-23.34,52.08-25.28,61.62-34.26c9.54-8.98,14.13-17.11,12.18-24.7
    c-1.96-7.59-3.92-11.5-3.92-18.05c0-6.54,6.54-18.97,19.03-32.31c12.48-13.34,21.46-25.28,30-28.11
    C246.47,33.49,247.12,45.66,247.12,45.66z" fill="none" stroke="#000" stroke-width="3"/>
  
  <path d="M246.87,45.92c0,0-3.92,53.16-23.86,89.16s-50.55,65.29-47.16,75.54c3.39,10.25,41.04,20.51,29.66,27.34
    c-11.38,6.83-31.89-1.7-39.91-11.95c-8.02-10.25-23.29-42.69-37.92-40.42c-14.64,2.26-18.02,30.18-15.19,47.07
    c2.83,16.89,9.08,42.69,9.65,54.47c0.57,11.78-3.96,27.91-12.55,32.74c-8.58,4.83-19.27,5.4-19.27,5.4" fill="none" stroke="#000" stroke-width="3"/>
  
  <path d="M230.11,82.49c0,0,11.38,18.81,34.51,33.01c23.13,14.21,41.7,19.38,48.82,25.08
    c7.12,5.7,17.94,16.53,15.76,31.61c-2.18,15.08-13.01,33.58-44.55,23.18c-31.54-10.4-63.65-26.5-68.22-42.46
    c-4.56-15.96,5.7-40.47,8.88-44.46S230.11,82.49,230.11,82.49z" fill="none" stroke="#000" stroke-width="1.5"/>
  
  <path d="M249.49,149.15c0,0,13.01,30.42,37.26,53.11c24.25,22.7,50.75,37.82,59.65,52.91
    c8.9,15.08,18.79,45.82,11.66,60.33c-7.12,14.5-27.43,21.06-42.17,21.06c-14.73,0-42.45-3.79-44.92-25.42
    c-2.47-21.63,8.26-48.72,46.63-68.58c38.37-19.87,51.37-19.87,60.04-28.49c8.67-8.63,11.15-19.56,11.15-19.56" fill="none" stroke="#000" stroke-width="2"/>
  
  <path d="M304.05,157.78c0,0,42.74,42.17,57.8,60.33c15.08,18.15,27.72,36.87,28.59,56.17
    c0.86,19.3-7.46,40.9-27.15,51.93c-19.7,11.03-51.8,11.61-69.95,1.72c-18.15-9.88-24.79-30.45-24.79-30.45" fill="none" stroke="#000" stroke-width="2"/>
  
  <path d="M132.6,296.52c0,0,31.26,31.27,67.4,31.27c36.12,0,68.49-10.33,77.16-19.13
    c8.67-8.79,11.21-24.93,0-33.17c-11.21-8.24-35.56-1.09-54.12,13.47c-18.55,14.57-32.25,37.55-32.25,37.55" fill="none" stroke="#000" stroke-width="2"/>
  
  <path d="M190.27,361.15c0,0,21.52,20.22,50.11,20.22s57.88-16.97,66.77-33.94
    c8.89-16.97,8.89-33.94,0-42.83c-8.89-8.89-26.66-8.89-35.55,0c-8.89,8.89-7.41,35.55-7.41,35.55" fill="none" stroke="#000" stroke-width="2"/>
</svg> 